# xmcd CD database file
#
# Track frame offsets:
#	150
#	14275
#	29250
#	47175
#	65575
#	76597
#	88500
#	103397
#	119570
#	135122
#	150900
#	164700
#
# Disc length: 2317 seconds
#
# Revision: 0
# Processed by: cddbd v1.5.1PL2 Copyright (c) Steve Scherf et al.
# Submitted via: CDex 1.51
#
DISCID=91090b0c
DTITLE=Jean Stafford - The Way I Feel Inside
DYEAR=1981
DGENRE=Country
TTITLE0=Cold Winder Body
TTITLE1=Can I See You Tonight
TTITLE2=Fire at Shepherds Flat
TTITLE3=Last Chester's Waltz
TTITLE4=Who's Cheatin' Who
TTITLE5=HillBilly Girl with the Blues
TTITLE6=Don't You Make No Eyes at Me Stranger
TTITLE7=What's Forever For
TTITLE8=Too Many Lovers
TTITLE9=The Miner's Wife
TTITLE10=Everything I Own
TTITLE11=I Don't Drink from the River
EXTD=YEAR: 1981
EXTT0=
EXTT1=
EXTT2=
EXTT3=
EXTT4=
EXTT5=
EXTT6=
EXTT7=
EXTT8=
EXTT9=
EXTT10=
EXTT11=
PLAYORDER=
